<svg version="1.0" xmlns="http://www.w3.org/2000/svg"
 width="300.000000pt" height="309.000000pt" viewBox="0 0 300.000000 309.000000"
 preserveAspectRatio="xMidYMid meet">
<g transform="translate(0.000000,309.000000) scale(0.100000,-0.100000)"
fill="#41b883" stroke="none">
<path d="M1070 2759 c-7 -12 -10 -56 -8 -105 l3 -84 -92 0 c-120 0 -123 -3
-123 -121 l0 -89 -89 0 c-68 0 -93 -4 -105 -16 -14 -14 -16 -114 -16 -953 0
-715 3 -940 12 -949 9 -9 164 -12 635 -12 720 0 643 -15 643 124 l0 86 95 0
c114 0 115 1 115 124 l0 86 86 0 c47 0 94 5 105 10 19 10 19 32 19 953 0 720
-3 946 -12 955 -9 9 -164 12 -635 12 -619 0 -622 0 -633 -21z m90 -25 c0 -3
-11 -19 -24 -35 -21 -25 -25 -26 -29 -10 -6 25 10 51 33 51 11 0 20 -3 20 -6z
m1144 -10 c8 -22 8 -44 -1 -43 -5 0 -18 13 -31 30 l-24 29 25 0 c14 0 28 -7
31 -16z m-44 -494 l0 -460 -183 0 c-192 0 -207 -3 -207 -45 0 -42 15 -45 207
-45 l183 0 0 -370 0 -370 -555 0 -555 0 0 370 0 370 183 0 c100 0 187 4 193 8
21 14 25 45 8 63 -16 17 -35 19 -201 19 l-183 0 0 460 0 460 555 0 555 0 0
-460z m-1148 263 l-4 -32 -25 29 c-14 17 -32 30 -41 31 -13 0 -13 2 3 8 11 5
29 19 40 31 l20 22 5 -28 c3 -16 4 -43 2 -61z m-181 2 l-31 -36 0 -428 c0
-273 4 -439 10 -458 6 -17 22 -36 36 -43 l24 -14 -35 -28 -35 -29 0 -106 0
-105 -33 29 -32 28 27 23 28 24 0 451 0 451 -27 28 -27 28 27 28 c24 25 27 36
27 98 0 76 9 94 48 94 l24 0 -31 -35z m134 -475 l0 -460 -62 0 -63 0 0 460 0
460 63 0 62 0 0 -460z m-332 293 c4 -4 -4 -18 -18 -33 -24 -25 -25 -28 -28
-225 l-2 -200 -3 221 c-1 160 1 223 10 232 13 13 31 16 41 5z m117 -505 l0
-463 -60 0 -60 0 0 463 0 462 60 0 60 0 0 -462z m292 -110 c-14 -16 -29 -28
-34 -28 -9 0 -11 104 -2 113 3 3 19 -9 34 -26 l29 -32 -27 -27z m1168 31 l0
-61 -33 29 -33 28 31 32 c16 18 31 33 33 33 1 0 2 -27 2 -61z m-1623 -246 c-1
-54 -3 -12 -3 92 0 105 2 149 3 98 2 -51 2 -136 0 -190z m423 30 l0 -57 -27
26 c-16 14 -35 28 -43 31 -13 5 -13 6 1 6 8 1 26 12 39 26 13 14 25 25 27 25
2 0 3 -26 3 -57z m-50 -335 c0 -257 2 -294 17 -310 15 -17 44 -18 495 -18
l478 0 0 -60 0 -60 -555 0 -555 0 0 370 0 370 60 0 60 0 0 -292z m-339 100
c-14 -16 -28 -28 -33 -28 -4 0 -8 27 -8 61 l0 61 33 -34 32 -33 -24 -27z m129
-309 c0 -181 4 -298 10 -310 10 -18 26 -19 495 -19 l485 0 0 -60 0 -60 -555 0
-555 0 0 370 0 370 60 0 60 0 0 -291z m290 -44 c21 -23 22 -25 5 -31 -19 -8
-45 18 -45 43 0 20 14 16 40 -12z m1168 4 c-3 -23 -33 -48 -44 -37 -7 7 27 57
39 58 5 0 7 -10 5 -21z m-168 -37 c0 -5 -9 -17 -20 -27 -16 -15 -20 -31 -20
-90 0 -74 -10 -95 -43 -95 -16 0 -15 3 7 33 33 43 36 112 6 150 -11 14 -20 28
-20 31 0 3 20 6 45 6 25 0 45 -4 45 -8z m-1215 -178 c19 -29 12 -44 -13 -28
-18 12 -29 54 -14 54 5 0 17 -12 27 -26z m1005 -30 c0 -3 -11 -19 -24 -35
l-24 -28 -27 34 -26 35 50 0 c28 0 51 -3 51 -6z m-1200 -206 c0 -5 -10 -8 -22
-6 -17 2 -24 11 -26 33 l-4 30 26 -24 c14 -14 26 -29 26 -33z m1158 26 c-4
-20 -34 -41 -44 -31 -8 8 24 47 38 47 5 0 8 -7 6 -16z"/>
<path d="M1679 2517 c-8 -8 -29 -46 -48 -85 l-34 -70 -62 -11 c-34 -6 -71 -11
-83 -11 -23 0 -62 -32 -62 -51 0 -6 29 -41 65 -79 l66 -67 -12 -91 c-10 -73
-10 -94 1 -106 18 -23 32 -20 119 23 l78 40 74 -39 c84 -45 99 -47 123 -21 16
17 16 25 2 107 l-16 89 66 66 c93 94 82 117 -64 140 l-72 11 -43 81 c-44 85
-69 104 -98 74z m81 -122 c1 -14 30 -47 60 -68 22 -15 22 -17 5 -17 -26 0 -34
7 -68 53 -15 20 -37 37 -47 37 -10 0 -36 -20 -57 -45 -20 -25 -44 -45 -52 -45
-10 0 -7 8 11 28 14 15 37 50 52 79 14 28 31 53 38 56 12 4 57 -56 58 -78z
m-25 -65 c26 -51 28 -52 109 -65 l39 -6 -42 -43 c-43 -44 -48 -65 -32 -124 5
-17 7 -32 3 -32 -4 0 -29 11 -56 25 l-48 24 -49 -24 c-26 -14 -51 -25 -54 -25
-6 0 1 55 11 92 3 11 -11 34 -36 61 -43 48 -40 57 19 57 37 0 64 22 86 69 10
23 20 41 21 41 2 0 15 -22 29 -50z m-188 -41 c-35 -29 -36 -31 -23 -58 8 -15
22 -33 30 -40 11 -9 16 -30 16 -65 0 -79 28 -104 89 -80 38 16 77 18 85 5 3
-5 18 -11 32 -14 20 -3 33 2 50 21 13 14 25 32 25 41 2 26 17 -41 18 -81 1
-46 -6 -47 -79 -8 -69 37 -89 37 -168 0 -35 -17 -69 -30 -74 -30 -7 0 -8 17
-3 53 17 108 14 121 -43 181 -66 69 -66 83 -4 91 26 4 52 8 57 10 28 10 26 2
-8 -26z m417 1 c7 -7 -6 -26 -41 -63 -29 -28 -57 -65 -64 -82 -12 -29 -13 -29
-17 -7 -2 14 4 33 16 45 19 21 42 60 42 71 0 3 -12 17 -27 32 l-27 27 54 -6
c29 -4 58 -11 64 -17z"/>
<path d="M1669 1749 c-16 -30 3 -69 34 -69 29 0 47 17 47 45 0 45 -60 63 -81
24z"/>
<path d="M1316 1544 c-19 -18 -20 -28 -6 -55 10 -18 25 -19 393 -19 285 0 386
3 395 12 18 18 14 56 -7 68 -13 6 -154 10 -390 10 -323 0 -372 -2 -385 -16z"/>
<path d="M1322 1344 c-29 -20 -28 -50 2 -69 35 -23 762 -18 776 5 16 25 11 59
-9 70 -13 6 -152 10 -383 10 -313 0 -367 -2 -386 -16z"/>
<path d="M1312 1138 c-17 -17 -15 -42 6 -61 16 -15 46 -17 208 -17 211 0 228
4 222 55 l-3 30 -210 3 c-155 2 -214 -1 -223 -10z"/>
</g>
</svg>
